<?xml version="1.0" encoding="utf-8"?>
<!-- Svg Vector Icons : http://www.onlinewebfonts.com/icon -->
<!DOCTYPE svg PUBLIC "-//W3C//DTD SVG 1.1//EN" "http://www.w3.org/Graphics/SVG/1.1/DTD/svg11.dtd">
<svg version="1.1" xmlns="http://www.w3.org/2000/svg" xmlns:xlink="http://www.w3.org/1999/xlink" x="0px" y="0px" viewBox="0 0 1000 1000" enable-background="new 0 0 1000 1000" xml:space="preserve">
<metadata> Svg Vector Icons : http://www.onlinewebfonts.com/icon </metadata>
<g><g transform="translate(0.000000,511.000000) scale(0.100000,-0.100000)"><path d="M2714,4962.2c-174.2-65.9-296.6-181.3-376.7-355.5l-68.3-148.3V79.4c0-4216.5,2.4-4383.7,44.7-4506.1c56.5-162.4,183.6-291.9,322.5-327.2c73-18.8,767.5-28.3,2387.2-33c2158.9-7.1,2288.4-4.7,2377.8,35.3c129.5,58.9,209.5,141.3,275.4,284.9l54.1,120.1V114.7c0,4254.2-2.3,4466.1-42.4,4572c-23.5,61.2-80.1,143.6-124.8,181.3c-167.2,148.3-101.3,143.6-2526.2,141.3C2909.4,5009.3,2829.3,5006.9,2714,4962.2z M7319,138.3v-3390.2H5000H2681V138.3v3390.2h2319h2319V138.3z M5188.3-3461.4c183.6-84.7,270.8-223.7,270.8-428.5c0-263.7-195.4-452-461.5-449.7c-190.7,2.4-343.7,108.3-419.1,291.9C4420.8-3671,4816.4-3289.6,5188.3-3461.4z"/><path d="M4788.1,2090c-692.2-51.8-1358.4-501.5-1669.2-1125.3c-324.9-649.8-303.7-1377.3,58.9-2020c122.4-218.9,482.6-588.6,685.1-708.6c369.6-219,706.3-310.8,1130.1-310.8c593.3,0,1090,216.6,1506.7,656.8c226,237.8,362.5,463.8,463.8,769.9c364.9,1092.4-230.7,2279-1327.8,2643.9C5383.7,2080.6,5084.7,2113.5,4788.1,2090z M5103.6,157.1c-178.9-496.7-343.7-946.4-364.9-1000.6c-37.7-101.2-37.7-101.2-155.4-101.2c-84.7,0-115.4,9.4-108.3,30.6c7.1,14.1,169.5,466.1,362.6,1000.6l350.8,970h120.1h120.1L5103.6,157.1z M4265.5,303.1c-9.4-9.4-167.1-73-348.4-141.3C3735.7,93.6,3580.4,30,3570.9,22.9c-9.4-9.4,146-77.7,346.1-153L4281.9-269v-150.7c0-84.7-9.4-148.3-21.2-143.6C4249-558.6,4008.8-455,3731-332.6l-508.5,223.7l4.7,127.1l7.1,129.5l517.9,228.4l517.9,228.4l7.1-141.3C4281.9,383.1,4274.9,312.5,4265.5,303.1z M6236,359.6l506.2-218.9V18.2v-124.8L6212.5-335c-291.9-127.1-536.8-230.7-546.2-230.7c-11.8-2.3-18.8,63.6-18.8,146v146l376.7,141.3c207.2,77.7,376.7,146,376.7,153s-169.5,75.3-376.7,150.7l-376.7,138.9v148.3c0,131.8,4.7,148.3,42.4,134.2C5711,583.2,5958.2,477.3,6236,359.6z"/><path d="M4776.3-3887.5v-211.9H5000h223.7v211.9v211.9H5000h-223.7V-3887.5z"/></g></g>
</svg>